<svg xmlns="http://www.w3.org/2000/svg" width="24" height="24" viewBox="0 0 24 24" fill="black" stroke="#ffffff" stroke-width="1" stroke-linecap="round" stroke-linejoin="round">
  <!-- Clipboard board -->
  <rect x="3" y="3" width="18" height="20" rx="2" ry="2" />
  <!-- Clipboard top handle -->
  <path d="M9 2 H15 A2 2 0 0 1 15 6 H9 A2 2 0 0 1 9 2 Z" />
  <!-- Lines and checkmarks -->
  <line x1="11" y1="10" x2="17" y2="10" stroke-width="2" />
  <line x1="11" y1="16" x2="17" y2="16" stroke-width="2" />
  <line x1="11" y1="13" x2="17" y2="13" stroke-width="2" />
  <polyline points="7,10 8,11 9,9" stroke-width="1.5" />
  <polyline points="7,16 8,17 9,15" stroke-width="1.5" />
  <polyline points="7,13 8,14 9,12" stroke-width="1.5" />
  <!-- Verification circle -->
  <circle cx="18" cy="18" r="6" fill="black" stroke="white" />
  <polyline points="15,18 17,20 21,16" stroke="white" stroke-width="1.5" fill="none" />
</svg>
